<?xml version="1.0" encoding="UTF-8" standalone="no"?>
<!DOCTYPE svg PUBLIC "-//W3C//DTD SVG 1.1//EN"
 "http://www.w3.org/Graphics/SVG/1.1/DTD/svg11.dtd">
<!-- Generated by graphviz version 2.50.0 (20220708.1628)
 -->
<!-- Title: snakemake_dag Pages: 1 -->
<svg width="629pt" height="404pt"
 viewBox="0.00 0.00 629.40 404.00" xmlns="http://www.w3.org/2000/svg" xmlns:xlink="http://www.w3.org/1999/xlink">
<g id="graph0" class="graph" transform="scale(1 1) rotate(0) translate(4 400)">
<title>snakemake_dag</title>
<polygon fill="white" stroke="transparent" points="-4,4 -4,-400 625.4,-400 625.4,4 -4,4"/>
<!-- 0 -->
<g id="node1" class="node">
<title>0</title>
<path fill="none" stroke="#59d856" stroke-width="2" d="M416,-36C416,-36 386,-36 386,-36 380,-36 374,-30 374,-24 374,-24 374,-12 374,-12 374,-6 380,0 386,0 386,0 416,0 416,0 422,0 428,-6 428,-12 428,-12 428,-24 428,-24 428,-30 422,-36 416,-36"/>
<text text-anchor="middle" x="401" y="-15.5" font-family="sans" font-size="10.00">all</text>
</g>
<!-- 1 -->
<g id="node2" class="node">
<title>1</title>
<path fill="none" stroke="#56c1d8" stroke-width="2" d="M185.5,-396C185.5,-396 82.5,-396 82.5,-396 76.5,-396 70.5,-390 70.5,-384 70.5,-384 70.5,-372 70.5,-372 70.5,-366 76.5,-360 82.5,-360 82.5,-360 185.5,-360 185.5,-360 191.5,-360 197.5,-366 197.5,-372 197.5,-372 197.5,-384 197.5,-384 197.5,-390 191.5,-396 185.5,-396"/>
<text text-anchor="middle" x="134" y="-375.5" font-family="sans" font-size="10.00">get_original_species_list</text>
</g>
<!-- 1&#45;&gt;0 -->
<g id="edge1" class="edge">
<title>1&#45;&gt;0</title>
<path fill="none" stroke="grey" stroke-width="2" d="M100.19,-360C60.49,-337.36 0,-293.3 0,-235 0,-235 0,-235 0,-161 0,-116.47 9.79,-97.91 46,-72 96.44,-35.91 283.09,-23.9 363.61,-20.34"/>
<polygon fill="grey" stroke="grey" stroke-width="2" points="363.95,-23.83 373.8,-19.91 363.66,-16.84 363.95,-23.83"/>
</g>
<!-- 2 -->
<g id="node3" class="node">
<title>2</title>
<path fill="none" stroke="#d8bc56" stroke-width="2" d="M329,-324C329,-324 177,-324 177,-324 171,-324 165,-318 165,-312 165,-312 165,-300 165,-300 165,-294 171,-288 177,-288 177,-288 329,-288 329,-288 335,-288 341,-294 341,-300 341,-300 341,-312 341,-312 341,-318 335,-324 329,-324"/>
<text text-anchor="middle" x="253" y="-303.5" font-family="sans" font-size="10.00">get_tnrs_and_species_list_updated</text>
</g>
<!-- 1&#45;&gt;2 -->
<g id="edge9" class="edge">
<title>1&#45;&gt;2</title>
<path fill="none" stroke="grey" stroke-width="2" d="M163.11,-359.88C178.67,-350.72 198.02,-339.34 214.78,-329.48"/>
<polygon fill="grey" stroke="grey" stroke-width="2" points="216.93,-332.28 223.78,-324.19 213.38,-326.24 216.93,-332.28"/>
</g>
<!-- 2&#45;&gt;0 -->
<g id="edge2" class="edge">
<title>2&#45;&gt;0</title>
<path fill="none" stroke="grey" stroke-width="2" d="M341.12,-302.29C427.32,-294.36 554.35,-267.43 616,-180 634.43,-153.87 598.53,-76.4 594,-72 551.87,-31.06 481.22,-21.08 438.08,-19.02"/>
<polygon fill="grey" stroke="grey" stroke-width="2" points="438.13,-15.52 428.01,-18.66 437.88,-22.52 438.13,-15.52"/>
</g>
<!-- 3 -->
<g id="node4" class="node">
<title>3</title>
<path fill="none" stroke="#bed856" stroke-width="2" d="M376,-180C376,-180 310,-180 310,-180 304,-180 298,-174 298,-168 298,-168 298,-156 298,-156 298,-150 304,-144 310,-144 310,-144 376,-144 376,-144 382,-144 388,-150 388,-156 388,-156 388,-168 388,-168 388,-174 382,-180 376,-180"/>
<text text-anchor="middle" x="343" y="-159.5" font-family="sans" font-size="10.00">create_traits_db</text>
</g>
<!-- 2&#45;&gt;3 -->
<g id="edge10" class="edge">
<title>2&#45;&gt;3</title>
<path fill="none" stroke="grey" stroke-width="2" d="M253.15,-287.92C254.06,-268.95 257.85,-238.08 272,-216 279.54,-204.24 290.67,-194.15 301.89,-186.02"/>
<polygon fill="grey" stroke="grey" stroke-width="2" points="304.14,-188.73 310.43,-180.2 300.2,-182.94 304.14,-188.73"/>
</g>
<!-- 4 -->
<g id="node5" class="node">
<title>4</title>
<path fill="none" stroke="#d85656" stroke-width="2" d="M393,-252C393,-252 293,-252 293,-252 287,-252 281,-246 281,-240 281,-240 281,-228 281,-228 281,-222 287,-216 293,-216 293,-216 393,-216 393,-216 399,-216 405,-222 405,-228 405,-228 405,-240 405,-240 405,-246 399,-252 393,-252"/>
<text text-anchor="middle" x="343" y="-231.5" font-family="sans" font-size="10.00">get_reproductive_traits</text>
</g>
<!-- 2&#45;&gt;4 -->
<g id="edge12" class="edge">
<title>2&#45;&gt;4</title>
<path fill="none" stroke="grey" stroke-width="2" d="M275.25,-287.7C286.58,-278.88 300.53,-268.03 312.82,-258.47"/>
<polygon fill="grey" stroke="grey" stroke-width="2" points="315.26,-261.01 321.01,-252.1 310.97,-255.48 315.26,-261.01"/>
</g>
<!-- 8 -->
<g id="node9" class="node">
<title>8</title>
<path fill="none" stroke="#56d88a" stroke-width="2" d="M250.5,-180C250.5,-180 115.5,-180 115.5,-180 109.5,-180 103.5,-174 103.5,-168 103.5,-168 103.5,-156 103.5,-156 103.5,-150 109.5,-144 115.5,-144 115.5,-144 250.5,-144 250.5,-144 256.5,-144 262.5,-150 262.5,-156 262.5,-156 262.5,-168 262.5,-168 262.5,-174 256.5,-180 250.5,-180"/>
<text text-anchor="middle" x="183" y="-159.5" font-family="sans" font-size="10.00">clean_species_abundance_data</text>
</g>
<!-- 2&#45;&gt;8 -->
<g id="edge15" class="edge">
<title>2&#45;&gt;8</title>
<path fill="none" stroke="grey" stroke-width="2" d="M244.56,-287.87C232.47,-263.35 210.13,-218.03 195.94,-189.26"/>
<polygon fill="grey" stroke="grey" stroke-width="2" points="199.03,-187.61 191.47,-180.19 192.76,-190.71 199.03,-187.61"/>
</g>
<!-- 3&#45;&gt;0 -->
<g id="edge3" class="edge">
<title>3&#45;&gt;0</title>
<path fill="none" stroke="grey" stroke-width="2" d="M381.78,-143.78C396.18,-135.24 410.96,-123.4 419,-108 429.2,-88.45 422.88,-63.7 415.05,-45.26"/>
<polygon fill="grey" stroke="grey" stroke-width="2" points="418.14,-43.61 410.77,-36 411.79,-46.55 418.14,-43.61"/>
</g>
<!-- 6 -->
<g id="node7" class="node">
<title>6</title>
<path fill="none" stroke="#56d8c1" stroke-width="2" d="M555.5,-108C555.5,-108 478.5,-108 478.5,-108 472.5,-108 466.5,-102 466.5,-96 466.5,-96 466.5,-84 466.5,-84 466.5,-78 472.5,-72 478.5,-72 478.5,-72 555.5,-72 555.5,-72 561.5,-72 567.5,-78 567.5,-84 567.5,-84 567.5,-96 567.5,-96 567.5,-102 561.5,-108 555.5,-108"/>
<text text-anchor="middle" x="517" y="-87.5" font-family="sans" font-size="10.00">calculate_plot_agb</text>
</g>
<!-- 3&#45;&gt;6 -->
<g id="edge14" class="edge">
<title>3&#45;&gt;6</title>
<path fill="none" stroke="grey" stroke-width="2" d="M385.57,-143.88C409.56,-134.22 439.73,-122.09 465.1,-111.88"/>
<polygon fill="grey" stroke="grey" stroke-width="2" points="466.6,-115.05 474.57,-108.07 463.99,-108.55 466.6,-115.05"/>
</g>
<!-- 9 -->
<g id="node10" class="node">
<title>9</title>
<path fill="none" stroke="#88d856" stroke-width="2" d="M287.5,-108C287.5,-108 78.5,-108 78.5,-108 72.5,-108 66.5,-102 66.5,-96 66.5,-96 66.5,-84 66.5,-84 66.5,-78 72.5,-72 78.5,-72 78.5,-72 287.5,-72 287.5,-72 293.5,-72 299.5,-78 299.5,-84 299.5,-84 299.5,-96 299.5,-96 299.5,-102 293.5,-108 287.5,-108"/>
<text text-anchor="middle" x="183" y="-87.5" font-family="sans" font-size="10.00">estimate_redundancy_and_functional_diversity</text>
</g>
<!-- 3&#45;&gt;9 -->
<g id="edge17" class="edge">
<title>3&#45;&gt;9</title>
<path fill="none" stroke="grey" stroke-width="2" d="M303.86,-143.88C281.99,-134.31 254.54,-122.3 231.34,-112.15"/>
<polygon fill="grey" stroke="grey" stroke-width="2" points="232.58,-108.87 222.01,-108.07 229.77,-115.28 232.58,-108.87"/>
</g>
<!-- 4&#45;&gt;3 -->
<g id="edge11" class="edge">
<title>4&#45;&gt;3</title>
<path fill="none" stroke="grey" stroke-width="2" d="M343,-215.7C343,-207.98 343,-198.71 343,-190.11"/>
<polygon fill="grey" stroke="grey" stroke-width="2" points="346.5,-190.1 343,-180.1 339.5,-190.1 346.5,-190.1"/>
</g>
<!-- 5 -->
<g id="node6" class="node">
<title>5</title>
<path fill="none" stroke="#568ad8" stroke-width="2" d="M398,-108C398,-108 330,-108 330,-108 324,-108 318,-102 318,-96 318,-96 318,-84 318,-84 318,-78 324,-72 330,-72 330,-72 398,-72 398,-72 404,-72 410,-78 410,-84 410,-84 410,-96 410,-96 410,-102 404,-108 398,-108"/>
<text text-anchor="middle" x="364" y="-87.5" font-family="sans" font-size="10.00">create_env_data</text>
</g>
<!-- 5&#45;&gt;0 -->
<g id="edge4" class="edge">
<title>5&#45;&gt;0</title>
<path fill="none" stroke="grey" stroke-width="2" d="M373.15,-71.7C377.4,-63.64 382.56,-53.89 387.27,-44.98"/>
<polygon fill="grey" stroke="grey" stroke-width="2" points="390.38,-46.58 391.96,-36.1 384.19,-43.31 390.38,-46.58"/>
</g>
<!-- 6&#45;&gt;0 -->
<g id="edge5" class="edge">
<title>6&#45;&gt;0</title>
<path fill="none" stroke="grey" stroke-width="2" d="M488.62,-71.88C473.12,-62.52 453.75,-50.83 437.17,-40.83"/>
<polygon fill="grey" stroke="grey" stroke-width="2" points="438.66,-37.64 428.29,-35.47 435.04,-43.63 438.66,-37.64"/>
</g>
<!-- 7 -->
<g id="node8" class="node">
<title>7</title>
<path fill="none" stroke="#d88d56" stroke-width="2" d="M595.5,-180C595.5,-180 434.5,-180 434.5,-180 428.5,-180 422.5,-174 422.5,-168 422.5,-168 422.5,-156 422.5,-156 422.5,-150 428.5,-144 434.5,-144 434.5,-144 595.5,-144 595.5,-144 601.5,-144 607.5,-150 607.5,-156 607.5,-156 607.5,-168 607.5,-168 607.5,-174 601.5,-180 595.5,-180"/>
<text text-anchor="middle" x="515" y="-159.5" font-family="sans" font-size="10.00">transform_crtm05_coords_to_wgs84</text>
</g>
<!-- 7&#45;&gt;0 -->
<g id="edge8" class="edge">
<title>7&#45;&gt;0</title>
<path fill="none" stroke="grey" stroke-width="2" d="M544.5,-143.94C556.98,-134.99 570.19,-122.79 577,-108 583.7,-93.47 586.54,-84.84 577,-72 545.22,-29.24 480.03,-19.71 438.52,-18.26"/>
<polygon fill="grey" stroke="grey" stroke-width="2" points="438.33,-14.75 428.26,-18.04 438.19,-21.75 438.33,-14.75"/>
</g>
<!-- 7&#45;&gt;6 -->
<g id="edge13" class="edge">
<title>7&#45;&gt;6</title>
<path fill="none" stroke="grey" stroke-width="2" d="M515.49,-143.7C515.71,-135.98 515.98,-126.71 516.23,-118.11"/>
<polygon fill="grey" stroke="grey" stroke-width="2" points="519.72,-118.2 516.51,-108.1 512.73,-118 519.72,-118.2"/>
</g>
<!-- 8&#45;&gt;0 -->
<g id="edge6" class="edge">
<title>8&#45;&gt;0</title>
<path fill="none" stroke="grey" stroke-width="2" d="M103.73,-143.86C85.39,-136.02 68.03,-124.61 57,-108 48.15,-94.67 46.58,-84.14 57,-72 96.2,-26.29 282.86,-19.63 363.62,-18.92"/>
<polygon fill="grey" stroke="grey" stroke-width="2" points="363.86,-22.42 373.84,-18.86 363.81,-15.42 363.86,-22.42"/>
</g>
<!-- 8&#45;&gt;9 -->
<g id="edge16" class="edge">
<title>8&#45;&gt;9</title>
<path fill="none" stroke="grey" stroke-width="2" d="M183,-143.7C183,-135.98 183,-126.71 183,-118.11"/>
<polygon fill="grey" stroke="grey" stroke-width="2" points="186.5,-118.1 183,-108.1 179.5,-118.1 186.5,-118.1"/>
</g>
<!-- 9&#45;&gt;0 -->
<g id="edge7" class="edge">
<title>9&#45;&gt;0</title>
<path fill="none" stroke="grey" stroke-width="2" d="M236.05,-71.97C275.74,-59.22 329.01,-42.12 364.14,-30.84"/>
<polygon fill="grey" stroke="grey" stroke-width="2" points="365.53,-34.07 373.98,-27.68 363.39,-27.4 365.53,-34.07"/>
</g>
</g>
</svg>
